<?xml version="1.0" encoding="UTF-8"?>
<svg width="170px" height="131px" viewBox="0 0 170 131" version="1.1" xmlns="http://www.w3.org/2000/svg" xmlns:xlink="http://www.w3.org/1999/xlink">
    <!-- Generator: Sketch 51.2 (57519) - http://www.bohemiancoding.com/sketch -->
    <title>Group 17</title>
    <desc>Created with Sketch.</desc>
    <defs></defs>
    <g id="Page-1" stroke="none" stroke-width="1" fill="none" fill-rule="evenodd">
        <g id="Group-17" transform="translate(2.000000, 2.000000)">
            <rect id="Rectangle-4-Copy-3" stroke="#F5A623" stroke-width="2.5" fill="#F5A623" x="0" y="0.0731707317" width="166" height="127"></rect>
            <g id="Email-1-Copy-3" transform="translate(46.000000, 22.073171)" fill-rule="nonzero">
                <path d="M62.8036585,52.0731707 L66.0987805,52.0731707 C67.7819019,52.0731707 69.1463415,50.7087312 69.1463415,49.0256098 L69.1463415,3.90121951 C69.1463415,2.21809806 67.7819019,0.853658537 66.0987805,0.853658537 L3.90121951,0.853658537 C2.21809806,0.853658537 0.853658537,2.21809806 0.853658537,3.90121951 L0.853658537,49.0256098 C0.853658537,50.7087312 2.21809806,52.0731707 3.90121951,52.0731707 L62.8036585,52.0731707 Z" id="Shape"></path>
                <path d="M66.0987805,52.9268293 L3.90121951,52.9268293 C1.74761061,52.9244769 0.00235238758,51.1792187 0,49.0256098 L0,3.90121951 C0.00235238758,1.74761061 1.74761061,0.00235238758 3.90121951,0 L66.0987805,0 C68.2523894,0.00235238758 69.9976476,1.74761061 70,3.90121951 L70,49.0256098 C69.9976476,51.1792187 68.2523894,52.9244769 66.0987805,52.9268293 Z M3.90121951,1.70731707 C2.6905348,1.70966564 1.70966564,2.6905348 1.70731707,3.90121951 L1.70731707,49.0256098 C1.70966564,50.2362945 2.6905348,51.2171636 3.90121951,51.2195122 L66.0987805,51.2195122 C67.3094652,51.2171636 68.2903344,50.2362945 68.2926829,49.0256098 L68.2926829,3.90121951 C68.2903344,2.6905348 67.3094652,1.70966564 66.0987805,1.70731707 L3.90121951,1.70731707 Z" id="Shape" fill="#FFFFFF"></path>
                <path d="M66.0987805,0.853658537 L3.90121951,0.853658537 C2.21809806,0.853658537 0.853658537,2.21809806 0.853658537,3.90121951 L0.853658537,10.6109756 L69.1463415,10.6109756 L69.1463415,3.90121951 C69.1463415,2.21809806 67.7819019,0.853658537 66.0987805,0.853658537 Z" id="Shape" fill="#F5A623"></path>
                <path d="M69.1463415,11.4646341 L0.853658537,11.4646341 C0.382195945,11.4646341 5.77375153e-17,11.0824382 0,10.6109756 L0,3.90121951 C0.00235238758,1.74761061 1.74761061,0.00235238758 3.90121951,-1.77635684e-15 L66.0987805,-1.77635684e-15 C68.2523894,0.00235238758 69.9976476,1.74761061 70,3.90121951 L70,10.6109756 C70,11.0824382 69.6178041,11.4646341 69.1463415,11.4646341 Z M1.70731707,9.75731707 L68.2926829,9.75731707 L68.2926829,3.90121951 C68.2903344,2.6905348 67.3094652,1.70966564 66.0987805,1.70731707 L3.90121951,1.70731707 C2.6905348,1.70966564 1.70966564,2.6905348 1.70731707,3.90121951 L1.70731707,9.75731707 Z" id="Shape" fill="#FFFFFF"></path>
                <circle id="Oval" fill="#F5A623" cx="6.34268293" cy="5.73231707" r="1.83109756"></circle>
                <path d="M6.34268293,7.98597561 C5.09566437,7.98597561 4.0847561,6.97506733 4.0847561,5.72804878 C4.0847561,4.48103023 5.09566437,3.47012195 6.34268293,3.47012195 C7.58970148,3.47012195 8.60060976,4.48103023 8.60060976,5.72804878 C8.60060976,6.97506733 7.58970148,7.98597561 6.34268293,7.98597561 Z M6.34268293,4.32804878 C5.56712696,4.32804878 4.93841463,4.95676111 4.93841463,5.73231707 C4.93841463,6.50787304 5.56712696,7.13658537 6.34268293,7.13658537 C7.11823889,7.13658537 7.74695122,6.50787304 7.74695122,5.73231707 C7.74695122,4.95676111 7.11823889,4.32804878 6.34268293,4.32804878 Z" id="Shape" fill="#FFFFFF"></path>
                <circle id="Oval" fill="#F5A623" cx="12.4378049" cy="5.73231707" r="1.83109756"></circle>
                <path d="M12.4378049,7.98597561 C11.1907863,7.98597561 10.179878,6.97506733 10.179878,5.72804878 C10.179878,4.48103023 11.1907863,3.47012195 12.4378049,3.47012195 C13.6848234,3.47012195 14.6957317,4.48103023 14.6957317,5.72804878 C14.6957317,6.97506733 13.6848234,7.98597561 12.4378049,7.98597561 Z M12.4378049,4.32804878 C11.6622489,4.32804878 11.0335366,4.95676111 11.0335366,5.73231707 C11.0335366,6.50787304 11.6622489,7.13658537 12.4378049,7.13658537 C13.2133608,7.13658537 13.8420732,6.50787304 13.8420732,5.73231707 C13.8420732,4.95676111 13.2133608,4.32804878 12.4378049,4.32804878 Z" id="Shape" fill="#FFFFFF"></path>
                <circle id="Oval" fill="#F5A623" cx="18.5371951" cy="5.73231707" r="1.83109756"></circle>
                <path d="M18.5371951,7.98597561 C17.2901766,7.98597561 16.2792683,6.97506733 16.2792683,5.72804878 C16.2792683,4.48103023 17.2901766,3.47012195 18.5371951,3.47012195 C19.7842137,3.47012195 20.795122,4.48103023 20.795122,5.72804878 C20.795122,6.97506733 19.7842137,7.98597561 18.5371951,7.98597561 Z M18.5371951,4.32804878 C17.7616392,4.32804878 17.1329268,4.95676111 17.1329268,5.73231707 C17.1329268,6.50787304 17.7616392,7.13658537 18.5371951,7.13658537 C19.3127511,7.13658537 19.9414634,6.50787304 19.9414634,5.73231707 C19.9414634,4.95676111 19.3127511,4.32804878 18.5371951,4.32804878 Z" id="Shape" fill="#FFFFFF"></path>
                <rect id="Rectangle-path" x="14.6615854" y="17.2780488" width="40.672561" height="27.0182927"></rect>
                <path d="M55.3384146,45.15 L14.6615854,45.15 C14.1901228,45.15 13.8079268,44.7678041 13.8079268,44.2963415 L13.8079268,17.2780488 C13.8079268,16.8065862 14.1901228,16.4243902 14.6615854,16.4243902 L55.3341463,16.4243902 C55.8056089,16.4243902 56.1878049,16.8065862 56.1878049,17.2780488 L56.1878049,44.2963415 C56.1878108,44.7661422 55.8082095,45.147651 55.3384146,45.15 Z M15.5195122,43.4426829 L54.4847561,43.4426829 L54.4847561,18.1317073 L15.5152439,18.1317073 L15.5195122,43.4426829 Z" id="Shape" fill="#FFFFFF"></path>
                <polygon id="Shape" points="14.6615854 17.2780488 55.3384146 17.2780488 35.0128049 37.5993902"></polygon>
                <path d="M35,38.4530488 C34.7745722,38.4532287 34.5582244,38.3642345 34.3981707,38.2054878 L14.0597561,17.8841463 C13.8140719,17.6404688 13.7397942,17.2725819 13.8716877,16.95267 C14.0035812,16.6327581 14.3155515,16.4241139 14.6615854,16.4243902 L55.3341463,16.4243902 C55.6783036,16.4258352 55.9879337,16.6338037 56.1194416,16.9518477 C56.2509495,17.2698917 56.1786117,17.6358 55.9359756,17.879878 L35.6189024,38.2054878 C35.4546757,38.3684714 35.2313253,38.4578116 35,38.4530488 Z M16.727439,18.1317073 L35,36.3957317 L53.2597561,18.1317073 L16.727439,18.1317073 Z" id="Shape" fill="#FFFFFF"></path>
                <path d="M14.6615854,45.15 C14.3174281,45.148555 14.007798,44.9405865 13.8762901,44.6225425 C13.7447822,44.3044985 13.81712,43.9385902 14.0597561,43.6945122 L27.577439,30.172561 C27.9109988,29.8390012 28.4518061,29.8390012 28.7853659,30.172561 C29.1189256,30.5061208 29.1189256,31.046928 28.7853659,31.3804878 L15.2676829,44.8981707 C15.107282,45.059529 14.8891044,45.1501803 14.6615854,45.15 Z" id="Shape" fill="#FFFFFF"></path>
                <path d="M55.3384146,45.15 C55.1123757,45.149047 54.8959422,45.0584826 54.7365854,44.8981707 L41.2231707,31.3890244 C40.8896109,31.0554646 40.8896109,30.5146573 41.2231707,30.1810976 C41.5567305,29.8475378 42.0975378,29.8475378 42.4310976,30.1810976 L55.9402439,43.6902439 C56.18288,43.9343219 56.2552178,44.3002302 56.1237099,44.6182742 C55.992202,44.9363182 55.6825719,45.1442867 55.3384146,45.1457317 L55.3384146,45.15 Z" id="Shape" fill="#FFFFFF"></path>
            </g>
            <text id="chol8272@uni.sydney.-copy" font-family="Neris-SemiBold, Neris" font-size="11" font-weight="500" letter-spacing="0.00157617603" fill="#FFFFFF">
                <tspan x="11.4245097" y="102.073171">chol8272@uni.sydney.edu.au</tspan>
            </text>
        </g>
    </g>
</svg>